<svg width="24" height="24" viewBox="0 0 24 24" fill="none" xmlns="http://www.w3.org/2000/svg">
  <defs>
    <linearGradient id="bulbGrad" x1="0%" y1="0%" x2="100%" y2="100%">
      <stop offset="0%" stop-color="#d4a574"/>
      <stop offset="50%" stop-color="#c9956a"/>
      <stop offset="100%" stop-color="#a67c52"/>
    </linearGradient>
  </defs>
  <!-- Bulb -->
  <path d="M12 2C8.13 2 5 5.13 5 9C5 11.38 6.19 13.47 8 14.74V17C8 17.55 8.45 18 9 18H15C15.55 18 16 17.55 16 17V14.74C17.81 13.47 19 11.38 19 9C19 5.13 15.87 2 12 2Z" fill="url(#bulbGrad)"/>
  <!-- Rays -->
  <circle cx="12" cy="9" r="3" fill="#f5e6d3"/>
  <!-- Base -->
  <rect x="9" y="19" width="6" height="1.5" rx="0.5" fill="url(#bulbGrad)"/>
  <rect x="10" y="21" width="4" height="1.5" rx="0.5" fill="url(#bulbGrad)"/>
</svg>
