<svg width="24" height="24" viewBox="0 0 24 24" fill="none" xmlns="http://www.w3.org/2000/svg">
  <defs>
    <linearGradient id="maskGrad" x1="0%" y1="0%" x2="100%" y2="100%">
      <stop offset="0%" stop-color="#d4a574"/>
      <stop offset="50%" stop-color="#c9956a"/>
      <stop offset="100%" stop-color="#a67c52"/>
    </linearGradient>
  </defs>
  <!-- Mask shape -->
  <path d="M12 2C8 2 4 5 3 9C2 13 3 16 5 18C7 20 10 21 12 21C14 21 17 20 19 18C21 16 22 13 21 9C20 5 16 2 12 2Z" fill="url(#maskGrad)"/>
  <!-- Inner mask detail -->
  <path d="M12 4C9 4 6 6 5.5 9C5 12 5.5 14.5 7 16C8.5 17.5 10.5 18.5 12 18.5C13.5 18.5 15.5 17.5 17 16C18.5 14.5 19 12 18.5 9C18 6 15 4 12 4Z" fill="#f5e6d3" opacity="0.9"/>
  <!-- Left eye cutout -->
  <ellipse cx="8.5" cy="10" rx="2.5" ry="2" fill="url(#maskGrad)"/>
  <ellipse cx="8.5" cy="10" rx="1.8" ry="1.4" fill="none" stroke="#f5e6d3" stroke-width="0.5" opacity="0.6"/>
  <!-- Right eye cutout -->
  <ellipse cx="15.5" cy="10" rx="2.5" ry="2" fill="url(#maskGrad)"/>
  <ellipse cx="15.5" cy="10" rx="1.8" ry="1.4" fill="none" stroke="#f5e6d3" stroke-width="0.5" opacity="0.6"/>
  <!-- Decorative nose bridge -->
  <path d="M10 10L12 14L14 10" fill="none" stroke="#a67c52" stroke-width="0.8" stroke-linecap="round"/>
  <!-- Small decorative dots -->
  <circle cx="6" cy="14" r="0.6" fill="#a67c52"/>
  <circle cx="18" cy="14" r="0.6" fill="#a67c52"/>
</svg>
