<svg width="24" height="24" viewBox="0 0 24 24" fill="none" xmlns="http://www.w3.org/2000/svg">
  <defs>
    <linearGradient id="shieldGrad" x1="0%" y1="0%" x2="100%" y2="100%">
      <stop offset="0%" stop-color="#d4a574"/>
      <stop offset="50%" stop-color="#c9956a"/>
      <stop offset="100%" stop-color="#a67c52"/>
    </linearGradient>
  </defs>
  <path d="M12 2L4 6V11C4 16.55 7.16 21.74 12 23C16.84 21.74 20 16.55 20 11V6L12 2Z" fill="url(#shieldGrad)"/>
  <path d="M12 4L6 7V11C6 15.52 8.52 19.62 12 20.92C15.48 19.62 18 15.52 18 11V7L12 4Z" fill="#f5e6d3" opacity="0.95"/>
  <path d="M10.5 13.5L8.5 11.5L7.5 12.5L10.5 15.5L16.5 9.5L15.5 8.5L10.5 13.5Z" fill="#a67c52"/>
</svg>
